ffmpeg started on 2025-06-06 at 15:57:38
Report written to "D:\Convert\FFMetrics\reports\psnr_report-6.txt"
Log level: 32
Command line:
ffmpeg -hide_banner -nostdin -i "G:\\\xc0\xed\xe8\xec\xe5\\\xce\xed\xe3\xee\xe8\xed\xe3\xe8\\!_36_\xce\xf1\xe5\xed\xfc_2024\\DreamCast\\\xcf\xe5\xf0\xe5\xf0\xee\xe6\xe4\xe5\xed\xe8\xe5 \xe2 \xe0\xf0\xe8\xf1\xf2\xee\xea\xf0\xe0\xf2\xe0 \xf1\xee \xf1\xef\xee\xf1\xee\xe1\xed\xee\xf1\xf2\xfc\xfe \xe0\xed\xe0\xeb\xe8\xe7\xe0\\\xd2\xc2-1\\[DC] Tensei Kizoku - Kantei Skill de Nariagaru - 09_Telegram_HEVC.mkv" -i "G:\\\xc0\xed\xe8\xec\xe5\\\xce\xed\xe3\xee\xe8\xed\xe3\xe8\\!_36_\xce\xf1\xe5\xed\xfc_2024\\DreamCast\\\xcf\xe5\xf0\xe5\xf0\xee\xe6\xe4\xe5\xed\xe8\xe5 \xe2 \xe0\xf0\xe8\xf1\xf2\xee\xea\xf0\xe0\xf2\xe0 \xf1\xee \xf1\xef\xee\xf1\xee\xe1\xed\xee\xf1\xf2\xfc\xfe \xe0\xed\xe0\xeb\xe8\xe7\xe0\\\xd2\xc2-1\\[DC] Tensei Kizoku - Kantei Skill de Nariagaru - 09_Telegram.mp4" -lavfi "[0:v]settb=AVTB,setpts=PTS-STARTPTS,format=pix_fmts=yuv420p10,fps=24000/1001,scale=1920:1080:flags=bicubic[main];[1:v]settb=AVTB,setpts=PTS-STARTPTS,format=pix_fmts=yuv420p,fps=24000/1001,scale=1920:1080:flags=bicubic[ref];[main][ref]psnr=eof_action=endall:stats_file='D\\:/Convert/FFMetrics/logs/psnr_logfile-6.txt'" -f null -
Input #0, matroska,webm, from 'G:\Аниме\Онгоинги\!_36_Осень_2024\DreamCast\Перерождение в аристократа со способностью анализа\ТВ-1\[DC] Tensei Kizoku - Kantei Skill de Nariagaru - 09_Telegram_HEVC.mkv':
  Metadata:
    COMPATIBLE_BRANDS: isomiso2avc1mp41
    MAJOR_BRAND     : isom
    MINOR_VERSION   : 512
    ENCODER         : Lavf61.7.100
  Duration: 00:23:50.06, start: -0.021000, bitrate: 921 kb/s
  Stream #0:0: Video: hevc (Main 10), yuv420p10le(tv, bt709, progressive), 1920x1080 [SAR 1:1 DAR 16:9], 23.98 fps, 23.98 tbr, 1k tbn (default)
      Metadata:
        HANDLER_NAME    : VideoHandler
        VENDOR_ID       : [0][0][0][0]
        ENCODER         : Lavc61.19.100 libx265
        BPS             : 725451
        DURATION        : 00:23:46.549708333
        NUMBER_OF_FRAMES: 34203
        NUMBER_OF_BYTES : 129361584
        _STATISTICS_WRITING_APP: mkvpropedit v66.0.0 ('Josie') 64-bit
        _STATISTICS_WRITING_DATE_UTC: 2025-06-02 08:12:43
        _STATISTICS_TAGS: BPS DURATION NUMBER_OF_FRAMES NUMBER_OF_BYTES
  Stream #0:1: Audio: aac (LC), 48000 Hz, stereo, fltp (default)
      Metadata:
        HANDLER_NAME    : SoundHandler
        VENDOR_ID       : [0][0][0][0]
        ENCODER         : Lavc61.19.100 aac
        BPS             : 193500
        DURATION        : 00:23:50.058000000
        NUMBER_OF_FRAMES: 67035
        NUMBER_OF_BYTES : 34589677
        _STATISTICS_WRITING_APP: mkvpropedit v66.0.0 ('Josie') 64-bit
        _STATISTICS_WRITING_DATE_UTC: 2025-06-02 08:12:43
        _STATISTICS_TAGS: BPS DURATION NUMBER_OF_FRAMES NUMBER_OF_BYTES
Input #1, mov,mp4,m4a,3gp,3g2,mj2, from 'G:\Аниме\Онгоинги\!_36_Осень_2024\DreamCast\Перерождение в аристократа со способностью анализа\ТВ-1\[DC] Tensei Kizoku - Kantei Skill de Nariagaru - 09_Telegram.mp4':
  Metadata:
    major_brand     : isom
    minor_version   : 512
    compatible_brands: isomiso2avc1mp41
    encoder         : Lavf60.16.100
  Duration: 00:23:50.01, start: 0.000000, bitrate: 3551 kb/s
  Stream #1:0[0x1](und): Video: h264 (High) (avc1 / 0x31637661), yuv420p(tv, bt709, progressive), 1920x1080 [SAR 1:1 DAR 16:9], 3412 kb/s, 23.98 fps, 23.98 tbr, 24k tbn (default)
      Metadata:
        handler_name    : VideoHandler
        vendor_id       : [0][0][0][0]
        encoder         : Lavc60.31.102 h264_qsv
  Stream #1:1[0x2](und): Audio: aac (HE-AACv2) (mp4a / 0x6134706D), 48000 Hz, stereo, fltp, 144 kb/s (default)
      Metadata:
        handler_name    : SoundHandler
        vendor_id       : [0][0][0][0]
Stream mapping:
  Stream #0:0 (hevc) -> settb:default
  Stream #1:0 (h264) -> settb:default
  psnr:default -> Stream #0:0 (wrapped_avframe)
  Stream #0:1 -> #0:1 (aac (native) -> pcm_s16le (native))
Output #0, null, to 'pipe:':
  Metadata:
    COMPATIBLE_BRANDS: isomiso2avc1mp41
    MAJOR_BRAND     : isom
    MINOR_VERSION   : 512
    encoder         : Lavf61.7.100
  Stream #0:0: Video: wrapped_avframe, yuv420p10le(tv, bt709, progressive), 1920x1080 [SAR 1:1 DAR 16:9], q=2-31, 200 kb/s, 23.98 fps, 23.98 tbn
      Metadata:
        encoder         : Lavc61.19.100 wrapped_avframe
  Stream #0:1: Audio: pcm_s16le, 48000 Hz, stereo, s16, 1536 kb/s (default)
      Metadata:
        HANDLER_NAME    : SoundHandler
        VENDOR_ID       : [0][0][0][0]
        _STATISTICS_TAGS: BPS DURATION NUMBER_OF_FRAMES NUMBER_OF_BYTES
        BPS             : 193500
        DURATION        : 00:23:50.058000000
        NUMBER_OF_FRAMES: 67035
        NUMBER_OF_BYTES : 34589677
        _STATISTICS_WRITING_APP: mkvpropedit v66.0.0 ('Josie') 64-bit
        _STATISTICS_WRITING_DATE_UTC: 2025-06-02 08:12:43
        encoder         : Lavc61.19.100 pcm_s16le
frame=  166 fps=0.0 q=-0.0 size=N/A time=00:00:06.92 bitrate=N/A speed=13.4x    frame=  436 fps=419 q=-0.0 size=N/A time=00:00:18.18 bitrate=N/A speed=17.5x    frame=  688 fps=444 q=-0.0 size=N/A time=00:00:28.73 bitrate=N/A speed=18.6x    frame=  943 fps=455 q=-0.0 size=N/A time=00:00:39.33 bitrate=N/A speed=  19x    frame= 1102 fps=427 q=-0.0 size=N/A time=00:00:45.96 bitrate=N/A speed=17.8x    frame= 1291 fps=417 q=-0.0 size=N/A time=00:00:53.84 bitrate=N/A speed=17.4x    frame= 1421 fps=393 q=-0.0 size=N/A time=00:00:59.26 bitrate=N/A speed=16.4x    frame= 1554 fps=377 q=-0.0 size=N/A time=00:01:04.81 bitrate=N/A speed=15.7x    frame= 1708 fps=368 q=-0.0 size=N/A time=00:01:11.23 bitrate=N/A speed=15.3x    frame= 1890 fps=366 q=-0.0 size=N/A time=00:01:18.82 bitrate=N/A speed=15.3x    frame= 2025 fps=357 q=-0.0 size=N/A time=00:01:24.45 bitrate=N/A speed=14.9x    frame= 2214 fps=357 q=-0.0 size=N/A time=00:01:32.34 bitrate=N/A speed=14.9x    frame= 2412 fps=359 q=-0.0 size=N/A time=00:01:40.60 bitrate=N/A speed=  15x    frame= 2590 fps=358 q=-0.0 size=N/A time=00:01:48.02 bitrate=N/A speed=14.9x    frame= 2775 fps=358 q=-0.0 size=N/A time=00:01:55.74 bitrate=N/A speed=14.9x    frame= 2936 fps=356 q=-0.0 size=N/A time=00:02:02.45 bitrate=N/A speed=14.8x    frame= 3119 fps=356 q=-0.0 size=N/A time=00:02:10.08 bitrate=N/A speed=14.8x    frame= 3330 fps=359 q=-0.0 size=N/A time=00:02:18.88 bitrate=N/A speed=  15x    frame= 3585 fps=366 q=-0.0 size=N/A time=00:02:29.52 bitrate=N/A speed=15.3x    frame= 3839 fps=372 q=-0.0 size=N/A time=00:02:40.11 bitrate=N/A speed=15.5x    frame= 4073 fps=376 q=-0.0 size=N/A time=00:02:49.87 bitrate=N/A speed=15.7x    frame= 4288 fps=378 q=-0.0 size=N/A time=00:02:58.84 bitrate=N/A speed=15.8x    frame= 4488 fps=378 q=-0.0 size=N/A time=00:03:07.18 bitrate=N/A speed=15.8x    frame= 4703 fps=380 q=-0.0 size=N/A time=00:03:16.15 bitrate=N/A speed=15.8x    frame= 4931 fps=382 q=-0.0 size=N/A time=00:03:25.66 bitrate=N/A speed=15.9x    frame= 5148 fps=384 q=-0.0 size=N/A time=00:03:34.71 bitrate=N/A speed=  16x    frame= 5336 fps=383 q=-0.0 size=N/A time=00:03:42.55 bitrate=N/A speed=  16x    frame= 5482 fps=380 q=-0.0 size=N/A time=00:03:48.64 bitrate=N/A speed=15.8x    frame= 5650 fps=378 q=-0.0 size=N/A time=00:03:55.65 bitrate=N/A speed=15.8x    frame= 5881 fps=380 q=-0.0 size=N/A time=00:04:05.28 bitrate=N/A speed=15.9x    frame= 6082 fps=380 q=-0.0 size=N/A time=00:04:13.67 bitrate=N/A speed=15.9x    frame= 6292 fps=381 q=-0.0 size=N/A time=00:04:22.42 bitrate=N/A speed=15.9x    frame= 6523 fps=383 q=-0.0 size=N/A time=00:04:32.06 bitrate=N/A speed=  16x    frame= 6745 fps=385 q=-0.0 size=N/A time=00:04:41.32 bitrate=N/A speed=  16x    frame= 6989 fps=387 q=-0.0 size=N/A time=00:04:51.49 bitrate=N/A speed=16.1x    frame= 7190 fps=387 q=-0.0 size=N/A time=00:04:59.88 bitrate=N/A speed=16.1x    frame= 7355 fps=386 q=-0.0 size=N/A time=00:05:06.80 bitrate=N/A speed=16.1x    frame= 7583 fps=387 q=-0.0 size=N/A time=00:05:16.27 bitrate=N/A speed=16.1x    frame= 7839 fps=390 q=-0.0 size=N/A time=00:05:26.95 bitrate=N/A speed=16.2x    frame= 8070 fps=391 q=-0.0 size=N/A time=00:05:36.58 bitrate=N/A speed=16.3x    frame= 8314 fps=393 q=-0.0 size=N/A time=00:05:46.76 bitrate=N/A speed=16.4x    frame= 8558 fps=395 q=-0.0 size=N/A time=00:05:56.93 bitrate=N/A speed=16.5x    frame= 8810 fps=397 q=-0.0 size=N/A time=00:06:07.45 bitrate=N/A speed=16.6x    frame= 9054 fps=399 q=-0.0 size=N/A time=00:06:17.62 bitrate=N/A speed=16.6x    frame= 9302 fps=401 q=-0.0 size=N/A time=00:06:27.97 bitrate=N/A speed=16.7x    frame= 9529 fps=402 q=-0.0 size=N/A time=00:06:37.43 bitrate=N/A speed=16.7x    frame= 9733 fps=402 q=-0.0 size=N/A time=00:06:45.94 bitrate=N/A speed=16.7x    frame= 9934 fps=401 q=-0.0 size=N/A time=00:06:54.33 bitrate=N/A speed=16.7x    frame=10149 fps=402 q=-0.0 size=N/A time=00:07:03.29 bitrate=N/A speed=16.7x    frame=10386 fps=403 q=-0.0 size=N/A time=00:07:13.22 bitrate=N/A speed=16.8x    frame=10632 fps=404 q=-0.0 size=N/A time=00:07:23.44 bitrate=N/A speed=16.9x    frame=10877 fps=406 q=-0.0 size=N/A time=00:07:33.66 bitrate=N/A speed=16.9x    frame=11100 fps=406 q=-0.0 size=N/A time=00:07:42.96 bitrate=N/A speed=16.9x    frame=11350 fps=407 q=-0.0 size=N/A time=00:07:53.38 bitrate=N/A speed=  17x    frame=11601 fps=409 q=-0.0 size=N/A time=00:08:03.85 bitrate=N/A speed=17.1x    frame=11863 fps=411 q=-0.0 size=N/A time=00:08:14.78 bitrate=N/A speed=17.1x    frame=12108 fps=412 q=-0.0 size=N/A time=00:08:25.00 bitrate=N/A speed=17.2x    frame=12355 fps=413 q=-0.0 size=N/A time=00:08:35.30 bitrate=N/A speed=17.2x    frame=12595 fps=414 q=-0.0 size=N/A time=00:08:45.31 bitrate=N/A speed=17.3x    frame=12843 fps=415 q=-0.0 size=N/A time=00:08:55.70 bitrate=N/A speed=17.3x    frame=13106 fps=416 q=-0.0 size=N/A time=00:09:06.62 bitrate=N/A speed=17.4x    frame=13356 fps=418 q=-0.0 size=N/A time=00:09:17.05 bitrate=N/A speed=17.4x    frame=13618 fps=419 q=-0.0 size=N/A time=00:09:27.98 bitrate=N/A speed=17.5x    frame=13859 fps=420 q=-0.0 size=N/A time=00:09:38.03 bitrate=N/A speed=17.5x    frame=14097 fps=420 q=-0.0 size=N/A time=00:09:47.96 bitrate=N/A speed=17.5x    frame=14322 fps=421 q=-0.0 size=N/A time=00:09:57.34 bitrate=N/A speed=17.5x    frame=14556 fps=421 q=-0.0 size=N/A time=00:10:07.10 bitrate=N/A speed=17.6x    frame=14807 fps=422 q=-0.0 size=N/A time=00:10:17.57 bitrate=N/A speed=17.6x    frame=15062 fps=423 q=-0.0 size=N/A time=00:10:28.21 bitrate=N/A speed=17.6x    frame=15331 fps=424 q=-0.0 size=N/A time=00:10:39.43 bitrate=N/A speed=17.7x    frame=15524 fps=424 q=-0.0 size=N/A time=00:10:47.52 bitrate=N/A speed=17.7x    frame=15738 fps=423 q=-0.0 size=N/A time=00:10:56.40 bitrate=N/A speed=17.7x    frame=15984 fps=424 q=-0.0 size=N/A time=00:11:06.66 bitrate=N/A speed=17.7x    frame=16245 fps=425 q=-0.0 size=N/A time=00:11:17.55 bitrate=N/A speed=17.7x    frame=16517 fps=427 q=-0.0 size=N/A time=00:11:28.89 bitrate=N/A speed=17.8x    frame=16772 fps=428 q=-0.0 size=N/A time=00:11:39.53 bitrate=N/A speed=17.8x    frame=17006 fps=428 q=-0.0 size=N/A time=00:11:49.29 bitrate=N/A speed=17.8x    frame=17275 fps=429 q=-0.0 size=N/A time=00:12:00.51 bitrate=N/A speed=17.9x    frame=17536 fps=430 q=-0.0 size=N/A time=00:12:11.39 bitrate=N/A speed=17.9x    frame=17826 fps=432 q=-0.0 size=N/A time=00:12:23.49 bitrate=N/A speed=  18x    frame=18109 fps=433 q=-0.0 size=N/A time=00:12:35.29 bitrate=N/A speed=18.1x    frame=18377 fps=434 q=-0.0 size=N/A time=00:12:46.47 bitrate=N/A speed=18.1x    frame=18643 fps=435 q=-0.0 size=N/A time=00:12:57.56 bitrate=N/A speed=18.2x    frame=18914 fps=436 q=-0.0 size=N/A time=00:13:08.87 bitrate=N/A speed=18.2x    frame=19189 fps=437 q=-0.0 size=N/A time=00:13:20.34 bitrate=N/A speed=18.2x    frame=19440 fps=438 q=-0.0 size=N/A time=00:13:30.81 bitrate=N/A speed=18.3x    frame=19714 fps=439 q=-0.0 size=N/A time=00:13:42.23 bitrate=N/A speed=18.3x    frame=19988 fps=440 q=-0.0 size=N/A time=00:13:53.66 bitrate=N/A speed=18.4x    frame=20218 fps=440 q=-0.0 size=N/A time=00:14:03.25 bitrate=N/A speed=18.4x    frame=20479 fps=441 q=-0.0 size=N/A time=00:14:14.14 bitrate=N/A speed=18.4x    frame=20731 fps=441 q=-0.0 size=N/A time=00:14:24.65 bitrate=N/A speed=18.4x    frame=20980 fps=442 q=-0.0 size=N/A time=00:14:35.04 bitrate=N/A speed=18.4x    frame=21246 fps=443 q=-0.0 size=N/A time=00:14:46.13 bitrate=N/A speed=18.5x    frame=21526 fps=444 q=-0.0 size=N/A time=00:14:57.81 bitrate=N/A speed=18.5x    frame=21804 fps=445 q=-0.0 size=N/A time=00:15:09.40 bitrate=N/A speed=18.5x    frame=22077 fps=446 q=-0.0 size=N/A time=00:15:20.79 bitrate=N/A speed=18.6x    frame=22342 fps=446 q=-0.0 size=N/A time=00:15:31.84 bitrate=N/A speed=18.6x    frame=22629 fps=447 q=-0.0 size=N/A time=00:15:43.81 bitrate=N/A speed=18.7x    frame=22879 fps=448 q=-0.0 size=N/A time=00:15:54.24 bitrate=N/A speed=18.7x    frame=23146 fps=449 q=-0.0 size=N/A time=00:16:05.38 bitrate=N/A speed=18.7x    frame=23429 fps=450 q=-0.0 size=N/A time=00:16:17.18 bitrate=N/A speed=18.8x    frame=23677 fps=450 q=-0.0 size=N/A time=00:16:27.52 bitrate=N/A speed=18.8x    frame=23928 fps=450 q=-0.0 size=N/A time=00:16:37.99 bitrate=N/A speed=18.8x    frame=24195 fps=451 q=-0.0 size=N/A time=00:16:49.13 bitrate=N/A speed=18.8x    frame=24447 fps=451 q=-0.0 size=N/A time=00:16:59.64 bitrate=N/A speed=18.8x    frame=24717 fps=452 q=-0.0 size=N/A time=00:17:10.90 bitrate=N/A speed=18.8x    frame=24968 fps=452 q=-0.0 size=N/A time=00:17:21.37 bitrate=N/A speed=18.9x    frame=25238 fps=453 q=-0.0 size=N/A time=00:17:32.63 bitrate=N/A speed=18.9x    frame=25508 fps=454 q=-0.0 size=N/A time=00:17:43.89 bitrate=N/A speed=18.9x    frame=25781 fps=454 q=-0.0 size=N/A time=00:17:55.28 bitrate=N/A speed=18.9x    frame=26043 fps=455 q=-0.0 size=N/A time=00:18:06.21 bitrate=N/A speed=  19x    frame=26317 fps=455 q=-0.0 size=N/A time=00:18:17.63 bitrate=N/A speed=  19x    frame=26588 fps=456 q=-0.0 size=N/A time=00:18:28.94 bitrate=N/A speed=  19x    frame=26835 fps=456 q=-0.0 size=N/A time=00:18:39.24 bitrate=N/A speed=  19x    frame=27076 fps=456 q=-0.0 size=N/A time=00:18:49.29 bitrate=N/A speed=  19x    frame=27328 fps=457 q=-0.0 size=N/A time=00:18:59.80 bitrate=N/A speed=  19x    frame=27555 fps=457 q=-0.0 size=N/A time=00:19:09.27 bitrate=N/A speed=  19x    frame=27800 fps=457 q=-0.0 size=N/A time=00:19:19.49 bitrate=N/A speed=  19x    frame=28031 fps=457 q=-0.0 size=N/A time=00:19:29.12 bitrate=N/A speed=  19x    frame=28284 fps=457 q=-0.0 size=N/A time=00:19:39.67 bitrate=N/A speed=19.1x    frame=28537 fps=457 q=-0.0 size=N/A time=00:19:50.23 bitrate=N/A speed=19.1x    frame=28789 fps=457 q=-0.0 size=N/A time=00:20:00.74 bitrate=N/A speed=19.1x    frame=29026 fps=457 q=-0.0 size=N/A time=00:20:10.62 bitrate=N/A speed=19.1x    frame=29266 fps=457 q=-0.0 size=N/A time=00:20:20.63 bitrate=N/A speed=19.1x    frame=29504 fps=458 q=-0.0 size=N/A time=00:20:30.56 bitrate=N/A speed=19.1x    frame=29724 fps=457 q=-0.0 size=N/A time=00:20:39.73 bitrate=N/A speed=19.1x    frame=29986 fps=458 q=-0.0 size=N/A time=00:20:50.66 bitrate=N/A speed=19.1x    frame=30249 fps=458 q=-0.0 size=N/A time=00:21:01.63 bitrate=N/A speed=19.1x    frame=30521 fps=459 q=-0.0 size=N/A time=00:21:12.98 bitrate=N/A speed=19.1x    frame=30794 fps=459 q=-0.0 size=N/A time=00:21:24.36 bitrate=N/A speed=19.1x    frame=31056 fps=460 q=-0.0 size=N/A time=00:21:35.29 bitrate=N/A speed=19.2x    frame=31282 fps=459 q=-0.0 size=N/A time=00:21:44.72 bitrate=N/A speed=19.2x    frame=31521 fps=459 q=-0.0 size=N/A time=00:21:54.68 bitrate=N/A speed=19.2x    frame=31738 fps=459 q=-0.0 size=N/A time=00:22:03.73 bitrate=N/A speed=19.1x    frame=31904 fps=458 q=-0.0 size=N/A time=00:22:10.66 bitrate=N/A speed=19.1x    frame=32103 fps=458 q=-0.0 size=N/A time=00:22:18.96 bitrate=N/A speed=19.1x    frame=32301 fps=457 q=-0.0 size=N/A time=00:22:27.22 bitrate=N/A speed=19.1x    frame=32492 fps=456 q=-0.0 size=N/A time=00:22:35.18 bitrate=N/A speed=  19x    frame=32682 fps=456 q=-0.0 size=N/A time=00:22:43.11 bitrate=N/A speed=  19x    frame=32867 fps=455 q=-0.0 size=N/A time=00:22:50.82 bitrate=N/A speed=  19x    frame=33086 fps=455 q=-0.0 size=N/A time=00:22:59.96 bitrate=N/A speed=  19x    frame=33223 fps=454 q=-0.0 size=N/A time=00:23:05.67 bitrate=N/A speed=18.9x    frame=33457 fps=454 q=-0.0 size=N/A time=00:23:15.43 bitrate=N/A speed=18.9x    frame=33660 fps=453 q=-0.0 size=N/A time=00:23:23.90 bitrate=N/A speed=18.9x    frame=33838 fps=452 q=-0.0 size=N/A time=00:23:31.32 bitrate=N/A speed=18.9x    frame=34072 fps=452 q=-0.0 size=N/A time=00:23:41.08 bitrate=N/A speed=18.9x    [Parsed_psnr_10 @ 000001b889c59340] PSNR y:47.728664 u:50.940573 v:51.138971 average:48.578780 min:41.078493 max:inf
[out#0/null @ 000001b8896950c0] video:14697KiB audio:268140KiB subtitle:0KiB other streams:0KiB global headers:0KiB muxing overhead: unknown
frame=34203 fps=452 q=-0.0 Lsize=N/A time=00:23:46.55 bitrate=N/A speed=18.9x    
